<?xml version="1.0" standalone="no"?><!DOCTYPE svg PUBLIC "-//W3C//DTD SVG 1.1//EN" "http://www.w3.org/Graphics/SVG/1.1/DTD/svg11.dtd"><svg class="icon" height="512" viewBox="0 0 1024 1024" version="1.1" xmlns="http://www.w3.org/2000/svg"><path d="M508.387238 0.001741A507.052356 507.052356 0 0 0 0.024166 512a507.052356 507.052356 0 0 0 508.363072 511.998259 88.616659 88.616659 0 0 0 87.152344-87.776981c0-21.944245-7.260135-36.566916-21.780406-58.511161A83.363557 83.363557 0 0 1 551.95829 819.198956a88.626899 88.626899 0 0 1 87.142104-87.766742h101.682854c159.743457 0 283.237437-124.343897 283.237437-285.25471C1009.490174 204.801044 784.4055 0.001741 508.387238 0.001741z m-312.318938 511.998259a87.776982 87.776982 0 0 1 0-175.543723 88.616659 88.616659 0 0 1 87.152344 87.776981C283.251363 468.111509 239.639352 512 196.10926 512z m167.075272-226.743549a87.776982 87.776982 0 1 1 87.152343-87.776982c0 43.888491-43.581292 87.776982-87.152343 87.776982z m283.237437 0a87.776982 87.776982 0 1 1 87.152343-87.776982c-7.270375 43.888491-43.591532 87.776982-87.162583 87.776982zM813.415321 512a87.776982 87.776982 0 1 1 87.142104-87.766742c0 43.878251-43.571052 87.766742-87.142104 87.766742z" /></svg>